<svg width="180" height="48" viewBox="0 0 180 48" fill="none" xmlns="http://www.w3.org/2000/svg">
<path d="M41.1428 41.1429H0V13.7143L20.5714 0L41.1428 13.7143V41.1429Z" fill="url(#paint0_linear_225_998)"/>
<path d="M88.0971 22.2857C85.9371 20.5715 82.5771 19.5943 78.0171 19.5943H66.4285V14.5543H88.9371V6.85718H56.1428V41.1429H77.9485C82.52 41.1429 85.8857 40.1657 88.0457 38.2115C89.1651 37.1687 90.0417 35.8928 90.6134 34.4738C91.1852 33.0548 91.4381 31.5275 91.3543 30C91.4383 28.5506 91.1883 27.1013 90.6236 25.7638C90.0589 24.4263 89.1945 23.2363 88.0971 22.2857ZM79.8343 33.4457C78.5372 34.3275 76.9725 34.7277 75.4114 34.5772H66.4285V25.7143H75.4285C77.0003 25.5558 78.5753 25.9831 79.8514 26.9143C80.2803 27.3337 80.6152 27.8394 80.8339 28.398C81.0526 28.9566 81.1501 29.5552 81.12 30.1543C81.1576 30.7634 81.0621 31.3734 80.8401 31.9418C80.6181 32.5102 80.2748 33.0235 79.8343 33.4457V33.4457Z" fill="#2C2D2E"/>
<path d="M106.457 26.76C106.166 27.1543 105.96 27.4457 105.823 27.6686L105.48 28.2343H105.378V6.85718H95.0918V41.1429H106.303L121.286 20.9143C121.577 20.5029 121.783 20.1772 121.92 19.9543L122.28 19.2686V19.92C122.28 20.1257 122.28 20.4857 122.28 21.0172V41.1429H132.566V6.85718H121.286L106.457 26.76Z" fill="#2C2D2E"/>
<path d="M166.046 41.1429H179.572L161.383 23.0057L178.303 6.85718H165.309L152.298 19.4572H148.612V6.85718H138.343V41.1429H148.612V27.72H152.469L166.046 41.1429Z" fill="#2C2D2E"/>
<defs>
<linearGradient id="paint0_linear_225_998" x1="0" y1="0" x2="41.1429" y2="41.1428" gradientUnits="userSpaceOnUse">
<stop stop-color="#00CCCC"/>
<stop offset="0.0666667" stop-color="#00CBCC"/>
<stop offset="0.133333" stop-color="#00CACC"/>
<stop offset="0.2" stop-color="#00C6CC"/>
<stop offset="0.266667" stop-color="#00C2CC"/>
<stop offset="0.333333" stop-color="#00BCCC"/>
<stop offset="0.4" stop-color="#00B5CC"/>
<stop offset="0.466667" stop-color="#00AECC"/>
<stop offset="0.533333" stop-color="#00A6CC"/>
<stop offset="0.6" stop-color="#009FCC"/>
<stop offset="0.666667" stop-color="#0098CC"/>
<stop offset="0.733333" stop-color="#0092CC"/>
<stop offset="0.8" stop-color="#008ECC"/>
<stop offset="0.866667" stop-color="#008ACC"/>
<stop offset="0.933333" stop-color="#0089CC"/>
<stop offset="1" stop-color="#0088CC"/>
</linearGradient>
</defs>
</svg>
